<svg height="512pt" viewBox="0 0 512 512" width="512pt" xmlns="http://www.w3.org/2000/svg"><path d="m473.601562 503.464844h-435.203124c-16.492188 0-29.863282-13.371094-29.863282-29.863282v-379.734374h494.929688v379.734374c0 16.492188-13.371094 29.863282-29.863282 29.863282zm0 0" fill="#dd352e" fill-rule="evenodd"/><path d="m503.464844 110.933594h-494.929688v-72.535156c0-16.492188 13.371094-29.863282 29.863282-29.863282h435.203124c16.492188 0 29.863282 13.371094 29.863282 29.863282zm0 0" fill="#28384c" fill-rule="evenodd"/><path d="m42.667969 42.667969h34.132812v34.132812h-34.132812zm0 0" fill="#dd352e" fill-rule="evenodd"/><path d="m110.933594 42.667969h34.132812v34.132812h-34.132812zm0 0" fill="#ebba16" fill-rule="evenodd"/><path d="m179.199219 42.667969h34.132812v34.132812h-34.132812zm0 0" fill="#23a24d" fill-rule="evenodd"/><g fill="#4d007e"><path d="m170.667969 324.265625h-110.933594c-3.054687 0-5.878906-1.628906-7.398437-4.28125-1.519532-2.65625-1.511719-5.90625.023437-8.550781l59.734375-102.402344c2.371094-4.0625 7.601562-5.433594 11.671875-3.070312 4.070313 2.371093 5.445313 7.601562 3.074219 11.671874l-52.25 89.566407h96.078125c4.710937 0 8.53125 3.824219 8.53125 8.535156s-3.820313 8.53125-8.53125 8.53125zm0 0"/><path d="m128 375.464844c-4.710938 0-8.535156-3.820313-8.535156-8.53125v-102.398438c0-4.710937 3.824218-8.535156 8.535156-8.535156s8.535156 3.824219 8.535156 8.535156v102.398438c0 4.710937-3.824218 8.53125-8.535156 8.53125zm0 0"/><path d="m443.734375 324.265625h-110.933594c-3.054687 0-5.878906-1.628906-7.398437-4.28125-1.519532-2.65625-1.511719-5.90625.023437-8.550781l59.734375-102.402344c2.371094-4.0625 7.605469-5.433594 11.675782-3.070312 4.070312 2.371093 5.441406 7.601562 3.070312 11.671874l-52.25 89.566407h96.078125c4.710937 0 8.53125 3.824219 8.53125 8.535156s-3.820313 8.53125-8.53125 8.53125zm0 0"/><path d="m401.066406 375.464844c-4.710937 0-8.53125-3.820313-8.53125-8.53125v-102.398438c0-4.710937 3.820313-8.535156 8.53125-8.535156 4.710938 0 8.535156 3.824219 8.535156 8.535156v102.398438c0 4.710937-3.824218 8.53125-8.535156 8.53125zm0 0"/><path d="m251.734375 375.464844c-30.585937 0-55.46875-24.882813-55.46875-55.464844v-59.734375c0-30.582031 24.882813-55.464844 55.46875-55.464844 30.582031 0 55.464844 24.882813 55.464844 55.464844v59.734375c0 30.582031-24.882813 55.464844-55.464844 55.464844zm0-153.597656c-21.171875 0-38.402344 17.226562-38.402344 38.398437v59.734375c0 21.171875 17.230469 38.398438 38.402344 38.398438s38.398437-17.226563 38.398437-38.398438v-59.734375c0-21.171875-17.226562-38.398437-38.398437-38.398437zm0 0"/><path d="m473.601562 512h-435.203124c-21.167969 0-38.398438-17.230469-38.398438-38.398438v-435.203124c0-21.167969 17.230469-38.398438 38.398438-38.398438h435.203124c21.167969 0 38.398438 17.230469 38.398438 38.398438v435.203124c0 21.167969-17.230469 38.398438-38.398438 38.398438zm-435.203124-494.933594c-11.757813 0-21.332032 9.574219-21.332032 21.332032v435.203124c0 11.757813 9.574219 21.332032 21.332032 21.332032h435.203124c11.765626 0 21.332032-9.574219 21.332032-21.332032v-435.203124c0-11.757813-9.574219-21.332032-21.332032-21.332032zm0 0"/><path d="m76.800781 85.332031h-34.132812c-4.710938 0-8.535157-3.820312-8.535157-8.53125v-34.132812c0-4.710938 3.824219-8.535157 8.535157-8.535157h34.132812c4.710938 0 8.53125 3.824219 8.53125 8.535157v34.132812c0 4.710938-3.820312 8.53125-8.53125 8.53125zm-25.601562-17.066406h17.066406v-17.066406h-17.066406zm0 0"/><path d="m145.066406 85.332031h-34.132812c-4.710938 0-8.535156-3.820312-8.535156-8.53125v-34.132812c0-4.710938 3.824218-8.535157 8.535156-8.535157h34.132812c4.710938 0 8.535156 3.824219 8.535156 8.535157v34.132812c0 4.710938-3.824218 8.53125-8.535156 8.53125zm-25.601562-17.066406h17.070312v-17.066406h-17.070312zm0 0"/><path d="m213.332031 85.332031h-34.132812c-4.710938 0-8.53125-3.820312-8.53125-8.53125v-34.132812c0-4.710938 3.820312-8.535157 8.53125-8.535157h34.132812c4.710938 0 8.535157 3.824219 8.535157 8.535157v34.132812c0 4.710938-3.824219 8.53125-8.535157 8.53125zm-25.597656-17.066406h17.066406v-17.066406h-17.066406zm0 0"/><path d="m503.464844 119.464844h-494.929688c-4.710937 0-8.535156-3.820313-8.535156-8.53125v-72.535156c0-21.167969 17.230469-38.398438 38.398438-38.398438h435.203124c21.167969 0 38.398438 17.230469 38.398438 38.398438v72.535156c0 4.710937-3.824219 8.53125-8.535156 8.53125zm-486.398438-17.066406h477.867188v-64c0-11.757813-9.574219-21.332032-21.332032-21.332032h-435.203124c-11.757813 0-21.332032 9.574219-21.332032 21.332032zm0 0"/></g></svg>