<?xml version="1.0" encoding="iso-8859-1"?>
<!-- Generator: Adobe Illustrator 19.0.0, SVG Export Plug-In . SVG Version: 6.00 Build 0)  -->
<svg version="1.1" id="Capa_1" xmlns="http://www.w3.org/2000/svg" xmlns:xlink="http://www.w3.org/1999/xlink" x="0px" y="0px"
	 viewBox="0 0 512 512" style="enable-background:new 0 0 512 512;" xml:space="preserve">
<circle style="fill:#42445E;" cx="256" cy="256" r="256"/>
<circle style="fill:#4C5470;" cx="256" cy="213.901" r="213.901"/>
<g>
	<path style="fill:#DB4573;" d="M256.003,467.664c-5.771,0-10.449-4.678-10.449-10.449v-143.83c0-5.771,4.678-10.449,10.449-10.449
		c5.771,0,10.449,4.678,10.449,10.449v143.83C266.452,462.986,261.774,467.664,256.003,467.664z"/>
	<path style="fill:#DB4573;" d="M256.003,209.062c-5.771,0-10.449-4.678-10.449-10.449V54.793c0-5.771,4.678-10.449,10.449-10.449
		c5.771,0,10.449,4.678,10.449,10.449v143.82C266.452,204.384,261.774,209.062,256.003,209.062z"/>
</g>
<g>
	<path style="fill:#FEE670;" d="M335.641,404.375c-3.611,0-7.123-1.874-9.058-5.226l-36.232-62.756
		c-2.886-4.998-1.173-11.388,3.824-14.273c4.997-2.886,11.387-1.174,14.273,3.824l36.232,62.755
		c2.886,4.998,1.173,11.388-3.824,14.273C339.21,403.924,337.414,404.375,335.641,404.375z"/>
	<path style="fill:#FEE670;" d="M212.611,191.281c-3.611,0-7.123-1.874-9.058-5.226l-36.227-62.747
		c-2.886-4.998-1.173-11.388,3.824-14.273c4.997-2.886,11.388-1.173,14.273,3.824l36.227,62.747
		c2.886,4.998,1.173,11.388-3.824,14.273C216.18,190.83,214.384,191.281,212.611,191.281z"/>
	<path style="fill:#FEE670;" d="M415.261,266.453h-72.465c-5.771,0-10.449-4.678-10.449-10.449c0-5.771,4.678-10.449,10.449-10.449
		h72.465c5.771,0,10.449,4.678,10.449,10.449C425.71,261.775,421.032,266.453,415.261,266.453z"/>
	<path style="fill:#FEE670;" d="M169.199,266.453H96.746c-5.771,0-10.449-4.678-10.449-10.449c0-5.771,4.678-10.449,10.449-10.449
		H169.2c5.771,0,10.449,4.678,10.449,10.449C179.649,261.775,174.97,266.453,169.199,266.453z"/>
	<path style="fill:#FEE670;" d="M299.39,191.289c-1.773,0-3.569-0.451-5.215-1.401c-4.998-2.885-6.71-9.276-3.824-14.273
		l36.232-62.757c2.885-4.997,9.276-6.708,14.273-3.824c4.998,2.885,6.71,9.276,3.824,14.273l-36.232,62.757
		C306.513,189.416,303.002,191.289,299.39,191.289z"/>
	<path style="fill:#FEE670;" d="M176.365,404.375c-1.773,0-3.569-0.451-5.215-1.401c-4.998-2.885-6.71-9.276-3.824-14.273
		l36.227-62.746c2.886-4.998,9.276-6.709,14.273-3.824c4.998,2.885,6.71,9.276,3.824,14.273l-36.227,62.746
		C183.488,402.502,179.976,404.375,176.365,404.375z"/>
</g>
<g>
	<path style="fill:#DB4573;" d="M430.247,367.06c-1.773,0-3.569-0.451-5.215-1.401l-124.56-71.915
		c-4.998-2.885-6.71-9.276-3.824-14.273c2.886-4.998,9.278-6.709,14.273-3.824l124.56,71.915c4.998,2.885,6.71,9.276,3.824,14.273
		C437.37,365.187,433.858,367.06,430.247,367.06z"/>
	<path style="fill:#DB4573;" d="M206.292,237.759c-1.773,0-3.569-0.451-5.215-1.401l-124.552-71.91
		c-4.998-2.885-6.71-9.276-3.824-14.273c2.886-4.998,9.277-6.708,14.273-3.824l124.552,71.91c4.998,2.885,6.71,9.276,3.824,14.273
		C213.415,235.886,209.903,237.759,206.292,237.759z"/>
	<path style="fill:#DB4573;" d="M305.706,237.764c-3.611,0-7.123-1.874-9.058-5.226c-2.886-4.998-1.173-11.388,3.824-14.273
		l124.56-71.915c4.997-2.886,11.387-1.174,14.273,3.824c2.886,4.998,1.173,11.388-3.824,14.273l-124.56,71.915
		C309.275,237.313,307.478,237.764,305.706,237.764z"/>
	<path style="fill:#DB4573;" d="M81.759,367.06c-3.611,0-7.123-1.874-9.058-5.226c-2.886-4.998-1.173-11.388,3.824-14.273
		l124.552-71.91c4.997-2.887,11.387-1.174,14.273,3.824c2.886,4.998,1.173,11.388-3.824,14.273l-124.552,71.91
		C85.328,366.609,83.532,367.06,81.759,367.06z"/>
</g>
<polygon style="fill:#D0DBE5;" points="254.558,223.002 265.001,244.161 288.352,247.555 271.455,264.025 275.443,287.281 
	254.558,276.301 233.673,287.281 237.662,264.025 220.765,247.555 244.115,244.161 "/>
<g>
	<polygon style="fill:#DB4573;" points="367.402,37.32 377.845,58.479 401.195,61.872 384.298,78.342 388.287,101.599 
		367.402,90.618 346.516,101.599 350.505,78.342 333.609,61.872 356.959,58.479 	"/>
	<polygon style="fill:#DB4573;" points="141.715,408.686 152.158,429.845 175.508,433.238 158.611,449.708 162.601,472.965 
		141.715,461.984 120.83,472.965 124.818,449.708 107.921,433.238 131.273,429.845 	"/>
</g>
<g>
	<polygon style="fill:#78CFF0;" points="122.34,48.505 145.886,50.041 160.499,31.516 166.315,54.384 188.45,62.558 168.498,75.155 
		167.565,98.732 149.418,83.649 126.706,90.047 135.443,68.128 	"/>
	<polygon style="fill:#78CFF0;" points="331.109,429.639 354.655,431.175 369.269,412.649 375.084,435.518 397.219,443.691 
		377.268,456.288 376.334,479.865 358.188,464.783 335.476,471.181 344.212,449.262 	"/>
</g>
<g>
	<polygon style="fill:#54D1B9;" points="9.497,266.328 22.6,246.705 13.863,224.786 36.575,231.184 54.721,216.102 55.654,239.679 
		75.607,252.276 53.472,260.449 47.657,283.318 33.043,264.792 	"/>
	<polygon style="fill:#54D1B9;" points="443.953,276.095 457.056,256.472 448.319,234.553 471.031,240.951 489.177,225.868 
		490.11,249.446 510.063,262.044 487.928,270.217 482.113,293.086 467.499,274.559 	"/>
</g>
<g>
</g>
<g>
</g>
<g>
</g>
<g>
</g>
<g>
</g>
<g>
</g>
<g>
</g>
<g>
</g>
<g>
</g>
<g>
</g>
<g>
</g>
<g>
</g>
<g>
</g>
<g>
</g>
<g>
</g>
</svg>
